<svg width="14" height="10" viewBox="0 0 14 10" fill="none" xmlns="http://www.w3.org/2000/svg">
<path d="M5.75627 9.27956C5.625 9.27983 5.49497 9.25417 5.37365 9.20406C5.25232 9.15395 5.14209 9.08038 5.04927 8.98756L0.807267 4.74456C0.711694 4.65238 0.635435 4.54209 0.582942 4.42013C0.530448 4.29816 0.502771 4.16696 0.501524 4.03418C0.500277 3.9014 0.525487 3.76971 0.57568 3.64678C0.625874 3.52385 0.700048 3.41214 0.793874 3.31819C0.887699 3.22423 0.999297 3.1499 1.12216 3.09953C1.24502 3.04916 1.37668 3.02377 1.50945 3.02482C1.64223 3.02588 1.77347 3.05337 1.89551 3.1057C2.01755 3.15802 2.12795 3.23412 2.22027 3.32956L5.75527 6.86456L12.1203 0.501562C12.3078 0.313921 12.5621 0.208453 12.8274 0.208359C13.0927 0.208265 13.3471 0.313553 13.5348 0.501061C13.7224 0.68857 13.8279 0.942938 13.828 1.20821C13.8281 1.47348 13.7228 1.72792 13.5353 1.91556L6.46327 8.98756C6.37045 9.08038 6.26021 9.15395 6.13888 9.20406C6.01756 9.25417 5.88753 9.27983 5.75627 9.27956Z" fill="#2FAB73"/>
</svg>
